<svg xmlns="http://www.w3.org/2000/svg" width="512" height="512" viewBox="0 0 512 512" role="img" aria-label="Kanvve logo">
  <defs>
    <linearGradient id="kanvve-mark" x1="78" y1="395" x2="424" y2="117" gradientUnits="userSpaceOnUse">
      <stop stop-color="#0f766e"/>
      <stop offset="0.52" stop-color="#14b8a6"/>
      <stop offset="1" stop-color="#fbbf24"/>
    </linearGradient>
  </defs>
  <rect width="512" height="512" rx="112" fill="#0f172a"/>
  <path d="M86 356c56-87 127-129 214-129 41 0 76 9 107 28-42 69-101 104-178 104-47 0-91-10-143-3Z" fill="url(#kanvve-mark)"/>
  <path d="M116 169c42-42 91-63 149-63 48 0 89 15 123 45" fill="none" stroke="#fbbf24" stroke-width="32" stroke-linecap="round"/>
  <path d="M142 365V148h62v78l87-78h80L273 247l105 118h-78l-73-82-23 23v59h-62Z" fill="#ffffff"/>
  <text x="256" y="432" text-anchor="middle" fill="#e2e8f0" font-family="Inter, Arial, sans-serif" font-size="46" font-weight="700" letter-spacing="2">KANVVE</text>
</svg>
